<svg xmlns="http://www.w3.org/2000/svg" viewBox="0 0 388.01 89.52">
	<defs>
		<style>.cls-1{fill:#5b6670;}.cls-2{fill:#ffc629;}.cls-3{fill:#fff;}</style>
	</defs>
	<title>Asset 6</title>
	<g id="Layer_2" data-name="Layer 2">
		<g id="Layer_1-2" data-name="Layer 1">
			<rect class="cls-1" x="26.42" y="48.98" width="21.64" height="30.36"/>
			<path class="cls-3" d="M99.45,70.16,87.2,39.58H97.89l7,19.76,7.45-19.76h10L109.23,70.16V86.35H99.45Z"/>
			<path class="cls-3" d="M125.43,71.46c0,3.88.13,9.71,4.14,9.71,3.24,0,3.89-3.11,3.89-5.83h9.27a11.65,11.65,0,0,1-3.5,8.49c-2.14,2-5.38,3.17-9.66,3.17-11.79,0-13.34-7.19-13.34-17.42,0-8.94,1.3-16.59,13.34-16.59,12.31,0,13.67,8,13.35,18.47Zm8.35-5.12c0-3.18.13-7.71-4.21-7.71s-4.14,4.92-4.14,7.71Z"/>
			<path class="cls-3" d="M155.42,39.58V86.35h-9.13V39.58Z"/>
			<path class="cls-3" d="M169.55,39.58V86.35h-9.14V39.58Z"/>
			<path class="cls-3" d="M171.69,69.58C171.69,60.64,173,53,185,53s13.35,7.65,13.35,16.59C198.38,79.81,196.82,87,185,87S171.69,79.81,171.69,69.58Zm17.55-.52c0-6.81-.32-10.24-4.21-10.24s-4.21,3.43-4.21,10.24c0,10,.84,12.11,4.21,12.11S189.24,79,189.24,69.06Z"/>
			<path class="cls-3" d="M196.76,53.64h9.07l4.47,24.62h.13l6.28-24.62h9.46l5.77,24.62h.12L237,53.64h8.74l-8.87,32.71h-9.59L221.38,64h-.13l-6.61,22.35h-9.72Z"/>
			<path class="cls-3" d="M246.45,86.35V39.58h24.29v7.19H256.23v12H270.1V66H256.23v20.4Z"/>
			<path class="cls-3" d="M271.59,69.58c0-8.94,1.29-16.59,13.34-16.59s13.35,7.65,13.35,16.59c0,10.23-1.56,17.42-13.35,17.42S271.59,79.81,271.59,69.58Zm17.55-.52c0-6.81-.32-10.24-4.21-10.24s-4.21,3.43-4.21,10.24c0,10,.84,12.11,4.21,12.11S289.14,79,289.14,69.06Z"/>
			<path class="cls-3" d="M309.49,39.58V86.35h-9.14V39.58Z"/>
			<path class="cls-3" d="M330,86.35V82.73h-.13c-1.68,3.17-4.21,4.27-7.71,4.27-9.45,0-9.13-10.49-9.13-17.23S312.79,53,322,53c3.3,0,5.57,1,7.45,3.76h.13V39.58h9.13V86.35Zm-.45-16.64c0-6.55.06-11.08-3.69-11.08-3.95,0-3.89,4.53-3.89,11.08,0,8.22.58,11.66,3.89,11.66C329,81.37,329.57,77.93,329.57,69.71Z"/>
			<path class="cls-3" d="M350.62,71.46c0,3.88.13,9.71,4.15,9.71,3.24,0,3.89-3.11,3.89-5.83h9.26a11.65,11.65,0,0,1-3.5,8.49c-2.14,2-5.37,3.17-9.65,3.17-11.79,0-13.34-7.19-13.34-17.42,0-8.94,1.29-16.59,13.34-16.59,12.31,0,13.67,8,13.34,18.47ZM359,66.34c0-3.18.13-7.71-4.21-7.71s-4.15,4.92-4.15,7.71Z"/>
			<path class="cls-3" d="M379.39,53.64v4.21h.13C381.2,54.09,384.31,53,388,53v8.17c-8-.52-8.17,4.14-8.17,7.38V86.35h-9.13V53.64Z"/>
			<path class="cls-2" d="M26.4,34.8V30.09a1.5,1.5,0,0,0-1.51-1.51H1.52A1.51,1.51,0,0,0,0,30.09v6.34A6.26,6.26,0,0,1,4.21,34.8Z"/>
			<path class="cls-1" d="M63.62,34.68H53.09V22.08A11.56,11.56,0,0,0,41.54,10.53H32.79A11.56,11.56,0,0,0,21.24,22.08v4.65H10.71V22.08A22.1,22.1,0,0,1,32.79,0h8.75A22.1,22.1,0,0,1,63.62,22.08Z"/>
			<path class="cls-2" d="M69.14,36.88H4.21A4.22,4.22,0,0,0,0,41.09V85.31a4.21,4.21,0,0,0,4.21,4.21H69.14a4.21,4.21,0,0,0,4.21-4.21V41.09A4.22,4.22,0,0,0,69.14,36.88ZM39.59,64.24v10.1H35.12V64.24a6.15,6.15,0,1,1,4.47,0Z"/>
		</g>
	</g>
</svg>
